:SAMPLES-PER-SECOND 30
:FULLY-SPECIFIED
:DEGREES
870
root  73.7414 39.5525 -4.67711 -63.3841 -84.0823 65.8542
RightUpLeg  6.19083 -10.5449 -6.36257
RightLeg  9.78166 -12.4326 3.18917
RightFoot  -16.0505 -0.144504 -0.87153
RightToes  0.00048216 0.542163 -0.142577
Spine  9.4613 -0.0760615 5.71783
Spine1  3.64943 0.889121 -2.48064
HEad  -9.24259 1.09397 -2.57613
LeftShoulder1  8.11877 -12.565 -43.9813
LeftArm  -10.4629 19.5109 -26.7632
LeftForeArm  33.5217 -29.1017 -4.47671
LeftHand  -0.25398 0.0180481 5.50724
RightShoulder  4.81542 8.28122 34.9007
RightArm  -1.70202 -14.5061 36.4814
RightForeArm  10.1116 13.7419 6.75569
RightHand  -0.726596 1.08584 -13.1421
LeftUpLeg  -24.4759 29.9132 -13.1227
LeftLeg  22.2556 10.3331 4.93777
LeftFoot  -2.80534 -0.193008 2.79639
LeftToes  1.06246e-005 4.65856e-005 -8.18502e-006
871
root  74.0206 39.5572 -4.48574 -74.6934 -84.7022 77.0865
RightUpLeg  5.49455 -10.4958 -6.4079
RightLeg  10.1414 -11.3028 3.03954
RightFoot  -15.8976 -0.156326 -1.22424
RightToes  0.00048216 0.542163 -0.142577
Spine  8.71647 -0.134732 6.48321
Spine1  4.22591 1.02638 -3.05184
HEad  -9.94832 1.59991 -2.96559
LeftShoulder1  7.92568 -12.291 -43.6642
LeftArm  -11.1357 19.5566 -26.9506
LeftForeArm  33.4766 -29.6868 -4.61107
LeftHand  -0.25398 0.0180481 5.50724
RightShoulder  4.86115 8.35138 35.0424
RightArm  0.290883 -16.0303 36.2227
RightForeArm  10.1813 14.3786 6.7426
RightHand  -0.653238 0.750759 -12.4446
LeftUpLeg  -21.0839 25.2302 -9.28193
LeftLeg  22.2692 11.8911 5.61713
LeftFoot  -3.02237 -0.0806679 1.33853
LeftToes  1.06246e-005 4.65856e-005 -8.18502e-006
872
root  74.2314 39.5237 -4.28046 -85.4937 -85.319 87.4936
RightUpLeg  5.3182 -10.4153 -6.29615
RightLeg  10.4946 -10.3611 2.98178
RightFoot  -16.0412 -0.165041 -1.37926
RightToes  0.00048216 0.542163 -0.142577
Spine  7.9443 -0.419279 7.03128
Spine1  5.22916 0.826137 -3.07221
HEad  -10.7045 2.54786 -3.22946
LeftShoulder1  7.83525 -12.0687 -43.7878
LeftArm  -12.0757 19.7962 -27.0725
LeftForeArm  33.3472 -30.1511 -4.72342
LeftHand  -0.25398 0.0180481 5.50724
RightShoulder  4.93941 8.52365 35.1049
RightArm  1.83271 -16.7654 35.7927
RightForeArm  10.7347 14.4906 6.83157
RightHand  -0.647122 0.696809 -12.4274
LeftUpLeg  -16.9951 20.4691 -5.84724
LeftLeg  20.6575 10.1181 4.55249
LeftFoot  -3.92214 0.111844 -1.37171
LeftToes  1.06246e-005 4.65856e-005 -8.18502e-006
873
root  74.3701 39.5528 -4.0756 -94.5287 -85.37 96.0123
RightUpLeg  5.6741 -10.4599 -6.69517
RightLeg  10.2968 -9.53782 3.01823
RightFoot  -15.8867 -0.160427 -1.33458
RightToes  0.00048216 0.542163 -0.142577
Spine  7.30594 -0.766957 6.36437
Spine1  5.98849 0.299681 -2.35259
HEad  -10.8469 3.68644 -3.34268
LeftShoulder1  7.92425 -11.9893 -44.5476
LeftArm  -12.6851 20.1481 -26.8845
LeftForeArm  32.8993 -29.8377 -4.67621
LeftHand  -0.25398 0.0180481 5.50724
RightShoulder  4.98323 8.59997 35.2065
RightArm  1.73366 -16.8168 35.1736
RightForeArm  12.9338 13.5565 7.0755
RightHand  -0.63978 0.621201 -12.4318
LeftUpLeg  -13.1615 17.3714 -4.31129
LeftLeg  17.126 6.8866 2.57833
LeftFoot  -4.92924 0.150922 -2.13299
LeftToes  1.06246e-005 4.65856e-005 -8.18502e-006
874
root  74.4827 39.6744 -3.90482 -94.9255 -84.8708 96.0831
RightUpLeg  6.05982 -10.5678 -7.50356
RightLeg  9.70785 -9.23471 2.96876
RightFoot  -15.0986 -0.141197 -1.18896
RightToes  0.00048216 0.542163 -0.142577
Spine  6.69373 -1.1587 4.53274
Spine1  6.28707 -0.495425 -1.1884
HEad  -10.3374 4.5519 -3.3628
LeftShoulder1  7.99667 -11.9263 -45.1636
LeftArm  -12.5286 20.139 -27.0046
LeftForeArm  32.1636 -28.211 -4.35166
LeftHand  -0.25398 0.0180481 5.50724
RightShoulder  4.96149 8.50663 35.3426
RightArm  -1.00842 -16.567 34.8791
RightForeArm  16.5853 11.7534 7.14243
RightHand  -0.591094 0.33844 -12.0279
LeftUpLeg  -10.4782 14.8599 -4.11421
LeftLeg  12.9804 6.91731 0.592507
LeftFoot  -4.23355 0.0570277 -0.567788
LeftToes  1.06246e-005 4.65856e-005 -8.18502e-006
875
root  74.6158 39.8172 -3.77549 -88.2921 -84.3828 89.3766
RightUpLeg  6.08918 -10.612 -8.09445
RightLeg  9.2897 -9.67051 2.76598
RightFoot  -14.0793 -0.118151 -0.955661
RightToes  0.00048216 0.542163 -0.142577
Spine  6.07347 -1.51374 2.73533
Spine1  6.30427 -1.24168 -0.132312
HEad  -9.51114 4.64131 -3.32306
LeftShoulder1  7.94231 -11.8801 -44.9841
LeftArm  -11.6243 19.6462 -27.9117
LeftForeArm  31.4763 -25.7821 -3.86028
LeftHand  -0.25398 0.0180481 5.50724
RightShoulder  4.88992 8.37684 35.1937
RightArm  -5.31749 -16.8985 35.4796
RightForeArm  18.219 10.457 6.63982
RightHand  -0.554111 0.0359347 -11.8834
LeftUpLeg  -8.88908 10.621 -3.76072
LeftLeg  9.43715 11.7253 -1.61583
LeftFoot  -2.17081 -0.0959513 1.36908
LeftToes  1.06246e-005 4.65856e-005 -8.18502e-006
876
root  74.763 39.9272 -3.66004 -84.0103 -84.1829 85.016
RightUpLeg  5.9948 -10.5806 -8.34071
RightLeg  9.08551 -10.102 2.61188
RightFoot  -13.2445 -0.100768 -0.672599
RightToes  0.00048216 0.542163 -0.142577
Spine  5.72558 -1.57034 1.96791
Spine1  6.21022 -1.43144 0.16852
HEad  -8.62536 3.84106 -3.05927
LeftShoulder1  7.87083 -11.9443 -44.3684
LeftArm  -10.449 19.1058 -29.0726
LeftForeArm  31.4184 -24.0234 -3.49512
LeftHand  -0.25398 0.0180481 5.50724
RightShoulder  4.82589 8.3648 34.705
RightArm  -8.89268 -18.1268 36.7164
RightForeArm  14.7645 10.6708 6.08201
RightHand  -0.610997 0.0233701 -13.0825
LeftUpLeg  -7.72029 7.18284 -3.29998
LeftLeg  6.63294 15.7814 -3.39245
LeftFoot  -0.402306 -0.200198 2.13125
LeftToes  1.06246e-005 4.65856e-005 -8.18502e-006
877
root  74.8954 40.0065 -3.52966 -88.534 -84.2618 89.2339
RightUpLeg  6.18781 -10.4976 -8.51618
RightLeg  8.68827 -9.70796 2.64872
RightFoot  -12.5731 -0.0908794 -0.552252
RightToes  0.00048216 0.542163 -0.142577
Spine  5.79504 -1.23684 2.25033
Spine1  6.17718 -0.906574 -0.571196
HEad  -8.15456 2.96063 -2.43599
LeftShoulder1  7.88212 -12.0626 -44.0809
LeftArm  -9.6587 18.948 -29.5476
LeftForeArm  32.3649 -24.0674 -3.4596
LeftHand  -0.25398 0.0180481 5.50724
RightShoulder  4.83874 8.4757 34.4386
RightArm  -10.004 -19.2544 37.6107
RightForeArm  8.11656 11.8173 6.1006
RightHand  -0.769033 0.4295 -15.3693
LeftUpLeg  -6.31133 4.38264 -2.73959
LeftLeg  4.09114 18.5356 -4.80229
LeftFoot  0.495003 -0.233154 2.22052
LeftToes  1.06246e-005 4.65856e-005 -8.18502e-006
878
root  75.0033 40.0615 -3.39084 -98.9404 -84.2871 99.2559
RightUpLeg  6.58815 -10.3878 -8.73327
RightLeg  8.01009 -8.74858 2.75548
RightFoot  -12.0277 -0.0858391 -0.755057
RightToes  0.00048216 0.542163 -0.142577
Spine  5.85326 -0.790977 2.79381
Spine1  6.46525 -0.140259 -1.74651
HEad  -8.32866 2.61363 -1.18422
LeftShoulder1  7.9561 -12.1238 -44.3328
LeftArm  -9.5341 19.2184 -29.142
LeftForeArm  33.6627 -25.5953 -3.70944
LeftHand  -0.25398 0.0180481 5.50724
RightShoulder  4.93041 8.58461 34.8278
RightArm  -8.37028 -19.0929 37.5805
RightForeArm  4.17606 12.9369 6.40364
RightHand  -0.865759 0.767781 -16.3856
LeftUpLeg  -4.98253 3.00398 -2.49724
LeftLeg  1.81689 20.4397 -5.89136
LeftFoot  1.06276 -0.30306 2.7265
LeftToes  1.06246e-005 4.65856e-005 -8.18502e-006
879
root  75.1012 40.0891 -3.26996 -106.564 -84.1017 106.721
RightUpLeg  6.76048 -10.3249 -8.94312
RightLeg  7.41566 -8.03331 2.78407
RightFoot  -11.7495 -0.0834484 -1.08112
RightToes  0.00048216 0.542163 -0.142577
Spine  5.45546 -0.547959 2.84429
Spine1  7.05345 0.292232 -2.459
HEad  -8.61249 2.27029 0.230185
LeftShoulder1  8.04166 -12.153 -44.7444
LeftArm  -9.8836 19.7474 -28.5201
LeftForeArm  34.0907 -27.2006 -4.0284
LeftHand  -0.25398 0.0180481 5.50724
RightShoulder  5.01973 8.60857 35.4736
RightArm  -5.50582 -17.6744 37.174
RightForeArm  6.44677 13.8945 6.41693
RightHand  -0.747246 0.588702 -14.5279
LeftUpLeg  -4.31515 2.94036 -2.59873
LeftLeg  0.34436 21.5915 -6.59997
LeftFoot  1.63816 -0.411602 3.53116
LeftToes  1.06246e-005 4.65856e-005 -8.18502e-006
880
root  75.2068 40.0947 -3.16946 -108.518 -83.9756 108.737
RightUpLeg  6.55185 -10.3542 -9.09856
RightLeg  7.26423 -7.79784 2.75953
RightFoot  -11.7439 -0.0837234 -1.18024
RightToes  0.00048216 0.542163 -0.142577
Spine  4.89729 -0.582502 2.47591
Spine1  7.51333 0.26427 -2.5247
HEad  -8.79171 2.38295 1.06817
LeftShoulder1  8.09277 -12.1749 -44.9757
LeftArm  -10.3466 20.2991 -28.3108
LeftForeArm  33.3261 -27.7728 -4.19249
LeftHand  -0.25398 0.0180481 5.50724
RightShoulder  5.04099 8.60799 35.6472
RightArm  -3.02937 -15.9578 37.3119
RightForeArm  11.6078 15.0728 6.01342
RightHand  -0.587002 0.511325 -11.6426
LeftUpLeg  -4.26516 2.90023 -2.76596
LeftLeg  -0.264791 22.034 -6.90895
LeftFoot  2.01528 -0.471847 3.92552
LeftToes  1.06246e-005 4.65856e-005 -8.18502e-006
